{
	"asset":{
		"generator":"Khronos glTF Blender I/O v3.5.30",
		"version":"2.0"
	},
	"scene":0,
	"scenes":[
		{
			"name":"Scene",
			"nodes":[
				1
			]
		}
	],
	"nodes":[
		{
			"mesh":0,
			"name":"Ship_n_Cockpit",
			"translation":[
				0,
				-0.19999998807907104,
				0
			]
		},
		{
			"children":[
				0
			],
			"name":"SM_RaytracerShip",
			"rotation":[
				0.70710688829422,
				0,
				0,
				0.7071066498756409
			],
			"scale":[
				0.009999999776482582,
				0.009999999776482582,
				0.009999999776482582
			],
			"translation":[
				0,
				-0.20000000298023224,
				0
			]
		}
	],
	"materials":[
		{
			"doubleSided":true,
			"name":"Metal",
			"normalTexture":{
				"index":0
			},
			"pbrMetallicRoughness":{
				"baseColorTexture":{
					"index":1
				},
				"metallicRoughnessTexture":{
					"index":2
				}
			}
		},
		{
			"doubleSided":true,
			"name":"Screens_and_keycard_buttons",
			"pbrMetallicRoughness":{
				"baseColorFactor":[
					0,
					0.05480000004172325,
					1,
					1
				],
				"metallicFactor":0,
				"roughnessFactor":0.5527864098548889
			}
		},
		{
			"doubleSided":true,
			"name":"Ship",
			"pbrMetallicRoughness":{
				"baseColorTexture":{
					"index":3
				},
				"metallicRoughnessTexture":{
					"index":4
				}
			}
		}
	],
	"meshes":[
		{
			"name":"Mesh",
			"primitives":[
				{
					"attributes":{
						"POSITION":0,
						"TEXCOORD_0":1,
						"NORMAL":2
					},
					"indices":3,
					"material":0
				},
				{
					"attributes":{
						"POSITION":4,
						"TEXCOORD_0":5,
						"NORMAL":6
					},
					"indices":7,
					"material":1
				},
				{
					"attributes":{
						"POSITION":8,
						"TEXCOORD_0":9,
						"NORMAL":10
					},
					"indices":11,
					"material":2
				}
			]
		}
	],
	"textures":[
		{
			"sampler":0,
			"source":0
		},
		{
			"sampler":0,
			"source":1
		},
		{
			"sampler":0,
			"source":2
		},
		{
			"sampler":0,
			"source":3
		},
		{
			"sampler":0,
			"source":4
		}
	],
	"images":[
		{
			"mimeType":"image/png",
			"name":"T_Cockpit_Normal",
			"uri":"cockpit_textures/T_Cockpit_Normal.png"
		},
		{
			"mimeType":"image/png",
			"name":"T_cockpit_basecolor",
			"uri":"cockpit_textures/T_cockpit_basecolor.png"
		},
		{
			"mimeType":"image/png",
			"name":"T_Cockpit_Metallic-T_cockpit_roughness",
			"uri":"cockpit_textures/T_Cockpit_Metallic-T_cockpit_roughness.png"
		},
		{
			"mimeType":"image/png",
			"name":"T_ship_basecolor",
			"uri":"cockpit_textures/T_ship_basecolor.png"
		},
		{
			"mimeType":"image/png",
			"name":"T_ship_metal-T_ship_roughness",
			"uri":"cockpit_textures/T_ship_metal-T_ship_roughness.png"
		}
	],
	"accessors":[
		{
			"bufferView":0,
			"componentType":5126,
			"count":1715,
			"max":[
				142.99900817871094,
				171.31732177734375,
				62.76094436645508
			],
			"min":[
				-142.9990692138672,
				-155.11480712890625,
				-19.347057342529297
			],
			"type":"VEC3"
		},
		{
			"bufferView":1,
			"componentType":5126,
			"count":1715,
			"type":"VEC2"
		},
		{
			"bufferView":2,
			"componentType":5126,
			"count":1715,
			"type":"VEC3"
		},
		{
			"bufferView":3,
			"componentType":5123,
			"count":4083,
			"type":"SCALAR"
		},
		{
			"bufferView":4,
			"componentType":5126,
			"count":107,
			"max":[
				79.61268615722656,
				103.55489349365234,
				48.27692794799805
			],
			"min":[
				-109.04495239257812,
				48,
				-10.140766143798828
			],
			"type":"VEC3"
		},
		{
			"bufferView":5,
			"componentType":5126,
			"count":107,
			"type":"VEC2"
		},
		{
			"bufferView":6,
			"componentType":5126,
			"count":107,
			"type":"VEC3"
		},
		{
			"bufferView":7,
			"componentType":5123,
			"count":258,
			"type":"SCALAR"
		},
		{
			"bufferView":8,
			"componentType":5126,
			"count":8608,
			"max":[
				772.93115234375,
				1009.2373657226562,
				201.8388214111328
			],
			"min":[
				-772.93115234375,
				-556.0827026367188,
				-258.2313232421875
			],
			"type":"VEC3"
		},
		{
			"bufferView":9,
			"componentType":5126,
			"count":8608,
			"type":"VEC2"
		},
		{
			"bufferView":10,
			"componentType":5126,
			"count":8608,
			"type":"VEC3"
		},
		{
			"bufferView":11,
			"componentType":5123,
			"count":30162,
			"type":"SCALAR"
		}
	],
	"bufferViews":[
		{
			"buffer":0,
			"byteLength":20580,
			"byteOffset":0,
			"target":34962
		},
		{
			"buffer":0,
			"byteLength":13720,
			"byteOffset":20580,
			"target":34962
		},
		{
			"buffer":0,
			"byteLength":20580,
			"byteOffset":34300,
			"target":34962
		},
		{
			"buffer":0,
			"byteLength":8166,
			"byteOffset":54880,
			"target":34963
		},
		{
			"buffer":0,
			"byteLength":1284,
			"byteOffset":63048,
			"target":34962
		},
		{
			"buffer":0,
			"byteLength":856,
			"byteOffset":64332,
			"target":34962
		},
		{
			"buffer":0,
			"byteLength":1284,
			"byteOffset":65188,
			"target":34962
		},
		{
			"buffer":0,
			"byteLength":516,
			"byteOffset":66472,
			"target":34963
		},
		{
			"buffer":0,
			"byteLength":103296,
			"byteOffset":66988,
			"target":34962
		},
		{
			"buffer":0,
			"byteLength":68864,
			"byteOffset":170284,
			"target":34962
		},
		{
			"buffer":0,
			"byteLength":103296,
			"byteOffset":239148,
			"target":34962
		},
		{
			"buffer":0,
			"byteLength":60324,
			"byteOffset":342444,
			"target":34963
		}
	],
	"samplers":[
		{
			"magFilter":9729,
			"minFilter":9987
		}
	],
	"buffers":[
		{
			"byteLength":402768,
			"uri":"cockpit_prototype.bin"
		}
	]
}
